# xmcd
#
# Track frame offsets: 
#        225
#        4398
#        16807
#        31922
#        43959
#        61089
#        71519
#        96048
#        120513
#        145293
#        156543
#        172201
#        181184
#        211701
#        236453
#
# Disc length: 3205 seconds
#
# Revision: 0
# Processed by: cddbd v1.5.1PL0 Copyright (c) Steve Scherf et al.
# Submitted via: ExactAudioCopy v0.95a5
#
DISCID=c90c820f
DTITLE=PTH - Noèní vidìní
DYEAR=2000
DGENRE=Blues
TTITLE0=Zdravice I.
TTITLE1=Moje víra
TTITLE2=Ty
TTITLE3=Sen XY
TTITLE4=Slova
TTITLE5=Mrtvola
TTITLE6=Mesto v pousti
TTITLE7=Blues domovních dveøí
TTITLE8=A co ty
TTITLE9=Pùlnoèní blues
TTITLE10=Strom
TTITLE11=Albert
TTITLE12=Zalm 121
TTITLE13=Blues o svítání
TTITLE14=Zdravice II.
EXTD=
EXTT0=
EXTT1=
EXTT2=
EXTT3=
EXTT4=
EXTT5=
EXTT6=
EXTT7=
EXTT8=
EXTT9=
EXTT10=
EXTT11=
EXTT12=
EXTT13=
EXTT14=
PLAYORDER=
